<?xml version="1.0" encoding="UTF-8"?>
<svg id="Layer_1" data-name="Layer 1" xmlns="http://www.w3.org/2000/svg" viewBox="0 0 2160 2160">
  <defs>
    <style>
      .cls-1 {
        fill: none;
      }

      .cls-2 {
        stroke: #231f20;
        stroke-miterlimit: 10;
      }

      .cls-3 {
        fill: #fff;
      }
    </style>
  </defs>
  <rect class="cls-2" x="-695.95" y="-131.25" width="3722.53" height="2475.67"/>
  <g>
    <path class="cls-1" d="m714.91,1399.34c-3.79-5.16-8.5-9.28-14.13-12.36-5.63-3.08-12.23-4.62-19.81-4.62s-14.18,1.54-19.81,4.62c-5.63,3.08-10.34,7.2-14.13,12.36-3.79,5.17-6.65,11.02-8.59,17.58-1.94,6.55-2.91,13.31-2.91,20.26s.97,13.7,2.91,20.26c1.94,6.55,4.81,12.42,8.59,17.58,3.79,5.17,8.49,9.29,14.13,12.36,5.63,3.08,12.23,4.62,19.81,4.62s14.17-1.54,19.81-4.62c5.63-3.08,10.34-7.2,14.13-12.36,3.79-5.16,6.65-11.02,8.59-17.58,1.94-6.55,2.91-13.3,2.91-20.26s-.97-13.71-2.91-20.26c-1.94-6.55-4.81-12.41-8.59-17.58Z"/>
    <path class="cls-1" d="m1368.51,1241.23c-2.53-8.56-9.29-12.28-20.27-11.15l-8.36,4.36c-17.74,17.94-21.38,31.27-10.9,40,21.96-2.26,35.14-13.33,39.53-33.21Z"/>
    <path class="cls-1" d="m831.84,693.8c-6.6-7.15-15.83-10.73-27.67-10.73s-20.44,3.53-26.94,10.58c-6.51,7.05-10.83,16.04-12.96,26.96h80.68c-2.14-10.73-6.51-19.66-13.11-26.81Z"/>
    <path class="cls-1" d="m1090.26,1241.71c-15.55,9.05-23.15,23.03-22.81,41.93,5.07,19.88,17.57,27.63,37.51,23.27,17.23-12.45,22.38-28.92,15.46-49.45-7.44-10.5-17.49-15.76-30.16-15.76Z"/>
    <path class="cls-1" d="m897.52,1475.01c3.79,5.17,8.49,9.29,14.13,12.36,5.63,3.08,12.23,4.62,19.81,4.62s14.17-1.54,19.8-4.62c5.63-3.08,10.34-7.2,14.13-12.36,3.79-5.16,6.65-11.02,8.59-17.58,1.94-6.55,2.91-13.3,2.91-20.26s-.97-13.71-2.91-20.26c-1.94-6.55-4.8-12.41-8.59-17.58-3.79-5.16-8.5-9.28-14.13-12.36-5.63-3.08-12.23-4.62-19.8-4.62s-14.18,1.54-19.81,4.62c-5.63,3.08-10.34,7.2-14.13,12.36-3.79,5.17-6.65,11.02-8.59,17.58-1.94,6.55-2.91,13.31-2.91,20.26s.97,13.7,2.91,20.26c1.94,6.55,4.81,12.42,8.59,17.58Z"/>
    <path class="cls-1" d="m1373,1382.35c-11.46,0-20.44,3.53-26.94,10.58-6.51,7.05-10.83,16.04-12.96,26.96h80.68c-2.14-10.73-6.51-19.66-13.11-26.81-6.6-7.15-15.83-10.73-27.67-10.73Z"/>
    <path class="cls-1" d="m1102.71,777.37c3.69,4.87,8.16,8.64,13.4,11.32,5.24,2.68,11.07,4.02,17.48,4.02s12.57-1.34,17.91-4.02c5.34-2.68,9.8-6.45,13.4-11.32,3.59-4.86,6.36-10.62,8.3-17.28,1.94-6.65,2.91-14.05,2.91-22.2s-.97-15.29-2.91-22.05c-1.94-6.75-4.71-12.56-8.3-17.43-3.6-4.86-8.06-8.64-13.4-11.32-5.34-2.68-11.31-4.02-17.91-4.02s-12.23,1.34-17.48,4.02c-5.24,2.68-9.71,6.46-13.4,11.32-3.69,4.87-6.55,10.68-8.59,17.43-2.04,6.75-3.06,14.1-3.06,22.05s1.02,15.54,3.06,22.2c2.04,6.66,4.9,12.42,8.59,17.28Z"/>
    <path class="cls-1" d="m1509.31,732.53c5.43,4.77,11.84,7.15,19.22,7.15s13.79-2.38,19.22-7.15c5.43-4.77,8.16-11.92,8.16-21.45s-2.72-16.78-8.16-21.75c-5.44-4.96-11.85-7.45-19.22-7.45s-13.79,2.49-19.22,7.45c-5.44,4.97-8.16,12.22-8.16,21.75s2.72,16.68,8.16,21.45Z"/>
    <path class="cls-1" d="m1558.83,809.25c-4.66-3.28-10.59-4.92-17.77-4.92h-29.71c-1.94,0-3.84-.05-5.68-.15-1.85-.1-3.55-.25-5.1-.45-3.5,2.78-5.97,6.01-7.43,9.68s-2.18,7.79-2.18,12.36c0,8.34,3.15,15.14,9.47,20.41,6.31,5.26,15.77,7.9,28.4,7.9s22.18-2.63,28.11-7.9c5.92-5.27,8.88-11.77,8.88-19.51,0-8.34-2.33-14.15-6.99-17.43Z"/>
    <path class="cls-3" d="m575.28,1498.65c-2.53.7-5.44,1.04-8.74,1.04-6.22,0-11.02-2.09-14.42-6.26-3.4-4.17-5.1-10.33-5.1-18.47v-82.53h38.45v-22.64h-38.45v-60.78l-24.47,15.79v44.99h-25.34v22.64h25.34v80.44c0,17.08,3.98,29.6,11.94,37.54,7.96,7.95,18.15,11.92,30.58,11.92,4.27,0,8.45-.4,12.52-1.19,4.08-.8,7.86-2.28,11.36-4.47l-5.83-21.75c-2.72,1.79-5.34,3.03-7.86,3.72Z"/>
    <path class="cls-3" d="m735.33,1390.94c-6.12-7.15-13.5-12.86-22.14-17.13-8.64-4.27-18.49-6.41-29.56-6.41s-20.92,2.14-29.56,6.41c-8.64,4.27-16.02,9.98-22.14,17.13s-10.78,15.39-13.98,24.73c-3.2,9.34-4.81,19.07-4.81,29.2s1.6,19.86,4.81,29.2c3.2,9.34,7.86,17.58,13.98,24.73s13.49,12.86,22.14,17.13c8.64,4.27,18.5,6.41,29.56,6.41s20.92-2.14,29.56-6.41c8.64-4.27,16.02-9.98,22.14-17.13s10.78-15.39,13.98-24.73c3.2-9.33,4.81-19.07,4.81-29.2s-1.6-19.86-4.81-29.2c-3.2-9.33-7.86-17.58-13.98-24.73Zm-9.17,74.18c-1.94,6.55-4.81,12.42-8.59,17.58-3.79,5.17-8.5,9.29-14.13,12.36-5.63,3.08-12.23,4.62-19.81,4.62s-14.18-1.54-19.81-4.62c-5.63-3.08-10.34-7.2-14.13-12.36-3.79-5.16-6.65-11.02-8.59-17.58-1.94-6.55-2.91-13.3-2.91-20.26s.97-13.71,2.91-20.26c1.94-6.55,4.81-12.41,8.59-17.58,3.79-5.16,8.49-9.28,14.13-12.36,5.63-3.08,12.23-4.62,19.81-4.62s14.17,1.54,19.81,4.62c5.63,3.08,10.34,7.2,14.13,12.36,3.79,5.17,6.65,11.02,8.59,17.58,1.94,6.55,2.91,13.31,2.91,20.26s-.97,13.7-2.91,20.26Z"/>
    <path class="cls-3" d="m881.37,1392.22c-5.6,6.85-9.93,14.66-12.94,23.46-3.2,9.34-4.81,19.07-4.81,29.2s1.6,19.86,4.81,29.2c3.2,9.34,7.86,17.58,13.98,24.73s13.49,12.86,22.14,17.13c8.64,4.27,18.5,6.41,29.56,6.41s20.92-2.14,29.56-6.41c8.64-4.27,16.02-9.98,22.13-17.13,6.12-7.15,10.78-15.39,13.98-24.73,3.21-9.33,4.81-19.07,4.81-29.2s-1.6-19.86-4.81-29.2c-3.2-9.33-7.86-17.58-13.98-24.73-6.12-7.15-13.5-12.86-22.13-17.13-.56-.28-1.15-.52-1.72-.78-26.84,12.92-53.7,19.31-80.57,19.19Zm10.21,32.39c1.94-6.55,4.81-12.41,8.59-17.58,3.79-5.16,8.49-9.28,14.13-12.36,5.63-3.08,12.23-4.62,19.81-4.62s14.17,1.54,19.8,4.62c5.63,3.08,10.34,7.2,14.13,12.36,3.79,5.17,6.65,11.02,8.59,17.58,1.94,6.55,2.91,13.31,2.91,20.26s-.97,13.7-2.91,20.26c-1.94,6.55-4.8,12.42-8.59,17.58-3.79,5.17-8.5,9.29-14.13,12.36-5.63,3.08-12.23,4.62-19.8,4.62s-14.18-1.54-19.81-4.62c-5.63-3.08-10.34-7.2-14.13-12.36-3.79-5.16-6.65-11.02-8.59-17.58-1.94-6.55-2.91-13.3-2.91-20.26s.97-13.71,2.91-20.26Z"/>
    <path class="cls-3" d="m1048.31,1324.8v44.99h-25.34v22.64h25.34v80.44c0,17.08,3.98,29.6,11.94,37.54,7.96,7.95,18.15,11.92,30.58,11.92,4.27,0,8.45-.4,12.52-1.19,4.08-.8,7.86-2.28,11.36-4.47l-5.83-21.75c-2.72,1.79-5.34,3.03-7.86,3.72-2.53.7-5.44,1.04-8.74,1.04-6.22,0-11.02-2.09-14.42-6.26-3.4-4.17-5.1-10.33-5.1-18.47v-82.53h38.45v-22.64h-38.45v-28.5c-8.12-3.44-16.07-9.07-23.85-16.89l-.62.4Z"/>
    <path class="cls-3" d="m1159.77,1334.71c-3.36-.89-6.85-2.13-10.45-3.7v187.26h24.47v-63.76c0-10.33,1.31-19.61,3.93-27.86,2.62-8.24,6.02-15.19,10.19-20.86,4.17-5.66,8.88-9.98,14.13-12.96,5.24-2.98,10.58-4.47,16.02-4.47,8.16,0,14.42,2.53,18.79,7.6,4.37,5.06,6.55,12.76,6.55,23.09v99.21h24.47v-104.28c0-16.09-3.84-28.15-11.5-36.2-7.67-8.04-18.2-12.07-31.6-12.07-11.46,0-21.65,2.78-30.58,8.34-8.93,5.56-15.73,12.91-20.39,22.05v-52.72c-4.53-1.39-9.21-3.87-14.06-7.44,0-.41.03-.83.04-1.25Z"/>
    <path class="cls-3" d="m1425.17,1389.16c-5.63-6.55-12.57-11.82-20.83-15.79-8.25-3.97-17.82-5.96-28.69-5.96s-20.78,2.14-29.13,6.41c-8.35,4.27-15.29,9.98-20.83,17.13-5.53,7.15-9.66,15.39-12.38,24.73-2.72,9.34-4.08,19.07-4.08,29.2s1.36,19.86,4.08,29.2c2.72,9.34,6.84,17.58,12.38,24.73,5.53,7.15,12.47,12.86,20.83,17.13,8.35,4.27,18.06,6.41,29.13,6.41,15.15,0,27.62-3.28,37.43-9.83,9.8-6.55,18.1-17.18,24.9-31.88l-21.55-9.53c-4.08,9.34-9.17,16.44-15.29,21.3-6.12,4.87-14.61,7.3-25.49,7.3-6.6,0-12.43-1.29-17.48-3.87-5.05-2.58-9.27-6.11-12.67-10.58-3.4-4.47-6.02-9.68-7.86-15.64-1.85-5.96-2.96-12.41-3.35-19.37h107.77v-11.62c0-9.33-1.41-18.27-4.22-26.81-2.82-8.54-7.04-16.09-12.67-22.64Zm-89.42,38.43c2.13-10.92,6.45-19.91,12.96-26.96,6.5-7.05,15.48-10.58,26.94-10.58s21.07,3.58,27.67,10.73c6.6,7.15,10.97,16.09,13.11,26.81h-80.68Z"/>
    <path class="cls-3" d="m1546.92,1367.41c-4.08,0-8.21.7-12.38,2.09-4.18,1.39-8.16,3.28-11.94,5.66-3.79,2.38-7.33,5.32-10.63,8.79-3.3,3.48-6.02,7.3-8.16,11.47v-25.62h-24.47v150.16h24.47v-56.9c0-12.11,1.21-22.74,3.64-31.88,2.43-9.13,5.58-16.78,9.47-22.94,3.88-6.15,8.25-10.73,13.11-13.71,4.85-2.98,9.8-4.47,14.85-4.47,6.02,0,11.75,1.39,17.18,4.17l4.95-22.34c-2.14-1.19-5-2.23-8.59-3.13-3.59-.89-7.43-1.34-11.5-1.34Z"/>
    <path class="cls-3" d="m1676.67,1456.34c-3.4-4.86-7.62-8.94-12.67-12.21-5.05-3.28-10.49-6.11-16.31-8.49-5.83-2.38-11.26-4.81-16.31-7.3-5.05-2.48-9.28-5.16-12.67-8.04-3.4-2.88-5.1-6.6-5.1-11.17,0-6.15,1.7-10.87,5.1-14.15,3.39-3.28,7.62-4.92,12.67-4.92s9.56,1.15,13.54,3.43c3.98,2.29,8.4,6.11,13.25,11.47l16.6-14.6c-10.49-15.29-24.66-22.94-42.52-22.94-6.6,0-12.57,1.09-17.91,3.28-5.34,2.19-9.86,5.12-13.54,8.79-3.69,3.68-6.55,8.04-8.59,13.11-2.04,5.07-3.06,10.48-3.06,16.24,0,8.15,1.65,14.8,4.95,19.96,3.3,5.17,7.47,9.49,12.52,12.96,5.05,3.48,10.49,6.36,16.31,8.64,5.83,2.29,11.26,4.57,16.31,6.85,5.05,2.29,9.22,4.87,12.52,7.75,3.3,2.88,4.95,6.61,4.95,11.17,0,7.95-2.09,13.85-6.26,17.73-4.18,3.87-9.95,5.81-17.33,5.81-8.16,0-15.05-2.88-20.68-8.64-5.63-5.76-10.1-12.71-13.4-20.85l-20.68,11.62c1.94,5.17,4.46,10.13,7.57,14.9,3.1,4.77,6.89,9.09,11.36,12.96,4.46,3.87,9.66,6.95,15.58,9.24,5.92,2.28,12.67,3.43,20.24,3.43,14.95,0,26.8-4.17,35.53-12.51,8.74-8.34,13.11-20.06,13.11-35.16,0-7.35-1.7-13.45-5.1-18.32Z"/>
    <path class="cls-3" d="m647.19,815.36c9.12,0,17.57-1.69,25.34-5.06,7.76-3.38,14.46-8.24,20.1-14.6,5.05-5.56,8.93-11.92,11.65-19.07,2.72-7.15,4.08-14.99,4.08-23.54s-1.46-15.64-4.37-21.9c-2.91-6.26-6.7-11.67-11.36-16.24-4.66-4.57-9.86-8.59-15.58-12.07-5.73-3.47-11.5-6.7-17.33-9.68-5.44-2.78-10.54-5.46-15.29-8.04-4.76-2.58-8.93-5.41-12.52-8.49-3.59-3.08-6.41-6.5-8.45-10.28-2.04-3.77-3.06-8.24-3.06-13.41,0-6.75,2.23-12.76,6.7-18.02,4.46-5.26,10.39-7.9,17.77-7.9,6.21,0,11.89,1.39,17.04,4.17,5.14,2.78,10.24,8.74,15.29,17.88l20.68-13.71c-2.53-4.96-5.34-9.48-8.45-13.56-3.11-4.07-6.75-7.6-10.92-10.58-4.18-2.98-9.03-5.26-14.56-6.85-5.53-1.59-11.9-2.38-19.08-2.38-6.8,0-13.21,1.29-19.22,3.87-6.02,2.58-11.31,6.26-15.87,11.02-4.56,4.77-8.21,10.38-10.92,16.83-2.72,6.46-4.08,13.56-4.08,21.3,0,8.15,1.36,15.1,4.08,20.85,2.72,5.76,6.31,10.87,10.78,15.34,4.46,4.47,9.71,8.44,15.73,11.92,6.02,3.48,12.33,6.81,18.93,9.98,4.85,2.38,9.61,4.87,14.27,7.45,4.66,2.58,8.78,5.51,12.38,8.79,3.59,3.28,6.45,6.9,8.59,10.87,2.13,3.98,3.2,8.44,3.2,13.41,0,9.93-2.62,18.17-7.86,24.73-3.3,3.98-7.43,6.96-12.38,8.94-4.95,1.99-10.05,2.98-15.29,2.98-6.6,0-12.28-1.19-17.04-3.58-4.76-2.38-8.84-5.61-12.23-9.68-3.4-4.07-6.22-8.84-8.45-14.3-2.23-5.46-4.22-11.27-5.97-17.43l-22.14,13.7c1.75,8.15,4.56,15.64,8.45,22.49,3.88,6.85,8.64,12.81,14.27,17.88,5.63,5.06,12.09,8.99,19.37,11.77s15.19,4.17,23.74,4.17Z"/>
    <path class="cls-3" d="m754.22,791.82c5.53,7.15,12.47,12.86,20.83,17.13,8.35,4.27,18.06,6.41,29.13,6.41,15.15,0,27.62-3.28,37.43-9.83,9.8-6.55,18.1-17.18,24.9-31.88l-21.55-9.53c-4.08,9.34-9.17,16.44-15.29,21.3-6.12,4.87-14.61,7.3-25.48,7.3-6.6,0-12.43-1.29-17.48-3.87-5.05-2.58-9.28-6.11-12.67-10.58-3.4-4.47-6.02-9.68-7.86-15.64-1.85-5.96-2.96-12.41-3.35-19.37h107.77v-11.62c0-9.33-1.41-18.27-4.22-26.81-2.82-8.54-7.04-16.09-12.67-22.64-5.63-6.55-12.57-11.81-20.83-15.79-8.25-3.97-17.82-5.96-28.69-5.96s-20.78,2.14-29.13,6.41c-8.35,4.27-15.29,9.98-20.83,17.13-5.53,7.15-9.66,15.39-12.38,24.73-2.72,9.34-4.08,19.07-4.08,29.2s1.36,19.86,4.08,29.2c2.72,9.34,6.84,17.58,12.38,24.73Zm23.01-98.17c6.5-7.05,15.48-10.58,26.94-10.58s21.07,3.58,27.67,10.73c6.6,7.15,10.97,16.09,13.11,26.81h-80.68c2.13-10.92,6.45-19.91,12.96-26.96Z"/>
    <path class="cls-3" d="m936.98,750.11c0-10.33,1.17-19.66,3.5-28.01,2.33-8.34,5.43-15.39,9.32-21.15,3.88-5.76,8.35-10.18,13.4-13.26,5.05-3.08,10.29-4.62,15.73-4.62,8.15,0,14.42,2.53,18.79,7.6,4.37,5.06,6.55,12.76,6.55,23.09v68.18c7.19,4.18,13.19,11.51,17.99,22.04,1.15,3.37,2.02,6.35,2.65,8.99h3.83v-105.77c0-14.9-3.84-26.41-11.5-34.56-7.67-8.14-18.2-12.21-31.6-12.21-10.29,0-19.62,2.58-27.96,7.75-8.35,5.17-15.25,12.62-20.68,22.34v-27.71h-24.46v150.16h24.46v-62.86Z"/>
    <path class="cls-3" d="m1082.47,793.46c5.53,6.85,12.33,12.22,20.39,16.09,8.05,3.87,17.52,5.81,28.4,5.81,4.46,0,8.88-.55,13.25-1.64,4.37-1.09,8.45-2.63,12.23-4.62,3.79-1.98,7.18-4.22,10.19-6.7,3.01-2.48,5.39-5.11,7.14-7.9v18.47h24.47v-210.93h-24.47v78.65c-1.17-2.18-3.2-4.47-6.12-6.85-2.91-2.38-6.31-4.57-10.19-6.55-3.89-1.98-8.11-3.62-12.67-4.92-4.56-1.29-9.17-1.94-13.83-1.94-10.88,0-20.34,1.94-28.4,5.81-8.06,3.87-14.85,9.24-20.39,16.09-5.53,6.85-9.66,15-12.38,24.43-2.72,9.44-4.08,19.81-4.08,31.13s1.36,21.7,4.08,31.13c2.72,9.44,6.84,17.58,12.38,24.43Zm11.65-77.61c2.04-6.75,4.9-12.56,8.59-17.43,3.69-4.86,8.16-8.64,13.4-11.32,5.24-2.68,11.07-4.02,17.48-4.02s12.57,1.34,17.91,4.02c5.34,2.68,9.8,6.46,13.4,11.32,3.59,4.87,6.36,10.68,8.3,17.43,1.94,6.75,2.91,14.1,2.91,22.05s-.97,15.54-2.91,22.2c-1.94,6.66-4.71,12.42-8.3,17.28-3.6,4.87-8.06,8.64-13.4,11.32-5.34,2.68-11.31,4.02-17.91,4.02s-12.23-1.34-17.48-4.02c-5.24-2.68-9.71-6.45-13.4-11.32-3.69-4.86-6.55-10.62-8.59-17.28-2.04-6.65-3.06-14.05-3.06-22.2s1.02-15.29,3.06-22.05Z"/>
    <rect class="cls-3" x="1245.43" y="662.82" width="24.47" height="150.16"/>
    <path class="cls-3" d="m1257.66,639.58c5.24,0,9.61-1.79,13.11-5.36s5.24-7.94,5.24-13.11-1.75-9.88-5.24-13.56c-3.5-3.67-7.86-5.51-13.11-5.51s-9.61,1.84-13.11,5.51c-3.5,3.68-5.24,8.19-5.24,13.56s1.75,9.53,5.24,13.11,7.86,5.36,13.11,5.36Z"/>
    <path class="cls-3" d="m1338.05,750.11c0-10.33,1.17-19.66,3.5-28.01,2.33-8.34,5.43-15.39,9.32-21.15,3.88-5.76,8.35-10.18,13.4-13.26,5.05-3.08,10.29-4.62,15.73-4.62,8.16,0,14.42,2.53,18.79,7.6,4.37,5.06,6.55,12.76,6.55,23.09v99.21h24.47v-105.77c0-14.9-3.84-26.41-11.5-34.56-7.67-8.14-18.2-12.21-31.6-12.21-10.29,0-19.61,2.58-27.96,7.75-8.35,5.17-15.25,12.62-20.68,22.34v-27.71h-24.47v150.16h24.47v-62.86Z"/>
    <path class="cls-3" d="m1585.92,848.13c3.3-6.55,4.95-14.5,4.95-23.83,0-13.7-4.22-24.03-12.67-30.98-8.45-6.95-19.56-10.43-33.35-10.43h-34.66c-11.07,0-16.6-4.17-16.6-12.51,0-6.55,3.2-11.42,9.61-14.6,7.18,3.58,15.63,5.36,25.34,5.36,7.18,0,13.88-1.14,20.1-3.43,6.21-2.28,11.65-5.56,16.31-9.83,4.66-4.27,8.3-9.53,10.92-15.79,2.62-6.26,3.93-13.26,3.93-21,0-10.33-2.43-19.37-7.28-27.11l19.81-11.32-11.07-20.56-26.21,15.19c-3.89-2.18-8.06-3.87-12.52-5.06-4.47-1.19-9.13-1.79-13.98-1.79-7.19,0-13.88,1.19-20.1,3.58-6.22,2.38-11.65,5.76-16.31,10.13-4.66,4.37-8.3,9.68-10.92,15.94-2.62,6.26-3.93,13.26-3.93,21,0,6.75.97,12.86,2.91,18.32,1.94,5.47,4.56,10.28,7.86,14.45-5.44,2.78-9.76,6.51-12.96,11.17-3.2,4.67-4.81,10.18-4.81,16.54,0,5.36.87,9.98,2.62,13.85,1.75,3.87,4.17,7.2,7.28,9.98-3.89,3.38-7.14,7.7-9.76,12.96-2.62,5.26-3.93,11.37-3.93,18.32,0,7.75,1.5,14.7,4.51,20.86,3.01,6.15,7.23,11.37,12.67,15.64,5.43,4.27,11.99,7.49,19.66,9.68,7.67,2.18,16.16,3.28,25.48,3.28,8.35,0,16.26-.94,23.74-2.83,7.47-1.89,14.08-4.92,19.81-9.09,5.73-4.17,10.24-9.53,13.54-16.09Zm-76.6-158.8c5.43-4.96,11.84-7.45,19.22-7.45s13.79,2.49,19.22,7.45c5.43,4.97,8.16,12.22,8.16,21.75s-2.72,16.68-8.16,21.45c-5.44,4.77-11.85,7.15-19.22,7.15s-13.79-2.38-19.22-7.15c-5.44-4.77-8.16-11.92-8.16-21.45s2.72-16.78,8.16-21.75Zm47.62,156.86c-5.92,5.26-15.29,7.9-28.11,7.9s-22.09-2.63-28.4-7.9c-6.31-5.27-9.47-12.07-9.47-20.41,0-4.57.73-8.69,2.18-12.36s3.93-6.9,7.43-9.68c1.55.2,3.25.35,5.1.45,1.84.1,3.74.15,5.68.15h29.71c7.18,0,13.11,1.64,17.77,4.92s6.99,9.09,6.99,17.43c0,7.75-2.96,14.25-8.88,19.51Z"/>
    <path class="cls-3" d="m817.83,883.69h-8.36c-1.18,0-1.86.57-2.03,1.7-5.92,0-10.9,4.77-14.95,14.3v10.91c0,.65.25.97.76.97,2.53,8.89,8.53,16.97,17.99,24.24,10.47,6.63,19.85,10.18,28.13,10.67,12.5-1.78,18.75-7.11,18.75-16v-1.94c0-5.82-2.2-12.36-6.59-19.63-12.5-16.8-23.74-25.21-33.71-25.21Z"/>
    <path class="cls-3" d="m843.17,841.27v11.88c3.71,19.07,10.64,34.02,20.78,44.84,8.95,9.54,17.74,15.84,26.36,18.91h13.18c4.9-2.1,7.35-4.2,7.35-6.3,4.22,0,7.69-8.97,10.39-26.91-1.52-13.41-4.05-24.56-7.6-33.45-11.49-24.56-24.92-36.84-40.29-36.84-6.59,0-12.84,2.1-18.75,6.3-6.08,5.82-9.88,13.01-11.4,21.57Z"/>
    <path class="cls-3" d="m947.58,1056.28c4.73,0,8.45-1.78,11.15-5.33,5.23-2.91,9.63-9.53,13.18-19.88v-13.33c-3.21-5.49-6.59-8.24-10.14-8.24l-3.8.97c-14.53,7.44-21.79,18.18-21.79,32.24,0,9.05,3.8,13.57,11.4,13.57Z"/>
    <path class="cls-3" d="m1014.23,929.51c1.18,5.01,2.45,8.32,3.8,9.94,6.75,12.6,19.01,18.91,36.75,18.91,15.37,0,32.6-5.09,51.7-15.27,11.99-4.52,26.69-16.56,44.1-36.12,7.1-9.7,11.82-21.97,14.19-36.84v-1.7c-1.01-9.53-2.28-15.59-3.8-18.18-9.12-17.29-21.37-25.94-36.75-25.94h-12.16c-19.43,0-41.99,12.28-67.66,36.84-20.11,22.95-30.16,42.42-30.16,58.42v9.94Z"/>
    <path class="cls-3" d="m1037.62,1268.45c-6.9,3.46-14.95,9.09-24.15,16.9-29.9,25.37-50.94,41.04-63.1,47.03-28.22,12.6-50.43,18.91-66.65,18.91h-15.97c-8.28-1.78-13.01-2.67-14.19-2.67-16.56-3.72-31.59-12.12-45.11-25.21-24.5-26.83-36.75-61.57-36.75-104.23v-1.94c0-8.89.34-21.17,1.01-36.84,1.01-1.94,1.94-5.49,2.79-10.67,6.25-33.94,16.3-63.91,30.16-89.93,41.39-76.76,86.16-115.14,134.31-115.14h1.01c3.21,0,7.94.24,14.19.73,12.16,4.2,22.13,13.25,29.9,27.15,4.39,12.12,7.26,27.39,8.62,45.81-1.52,18.75-4.05,35.23-7.6,49.45-3.72,15.19-9.97,32.56-18.75,52.12-11.66,20.69-20.44,33.86-26.36,39.51-12.84,14.54-25.34,22.95-37.51,25.21h-16.22c-1.01,0-1.61-.56-1.77-1.7-6.59,0-12.84-7.84-18.75-23.51v-4.36c0-2.91-.34-5.9-1.01-8.97,0-13.57,3.46-28.28,10.39-44.12,11.82-19.55,17.74-32.48,17.74-38.78s-4.65-10.34-13.94-11.64c-4.56,0-10.81,3.88-18.75,11.64-20.11,26.34-30.16,54.54-30.16,84.6,0,20.04,5.91,37.17,17.74,51.39,13.51,13.09,28.3,19.63,44.35,19.63,8.28-.64,15.46-1.86,21.54-3.64,19.09-4.36,39.79-19.63,62.09-45.81,16.22-21.33,29.4-46.54,39.53-75.63,5.58-17.61,9.97-39.43,13.18-65.45-.68,0-1.01-.32-1.01-.97.67-3.23,1.01-5.9,1.01-8v-9.94l-1.01-6.3c.67,0,1.01-.32,1.01-.97-3.21-20.52-7.6-36.12-13.18-46.78-17.23-28.76-42.66-43.15-76.28-43.15-23.66,0-49.33,8.08-77.04,24.24-24.33,17.45-41.22,33.05-50.68,46.78-16.73,17.13-33.96,44.44-51.7,81.93-4.23,12.6-6.76,18.91-7.6,18.91-2.03,8.89-3.64,13.33-4.81,13.33-9.97,38.78-14.95,69.41-14.95,91.87v5.33c0,15.19,3.12,35.55,9.38,61.08,5.58,18.58,12.5,33.94,20.78,46.05,3.55,8.73,16.05,22.22,37.51,40.48,25.17,14.87,49.92,22.3,74.25,22.3,1.21.03,2.41.03,3.61.04,26.87.12,53.73-6.27,80.57-19.19,27.58-13.28,55.15-33.44,82.7-60.49-4.99-12.3-6.45-24.43-4.37-36.4Z"/>
    <path class="cls-3" d="m1041.6,1026.71v.73c0,25.21-2.53,48.64-7.6,70.3v.73c1.69,0,4.81-1.78,9.38-5.33l27.37-14.3c21.96-5.82,32.94-10.02,32.94-12.6v-6.3c-1.35-1.45-2.03-2.67-2.03-3.64-10.81-15.35-29.9-26.74-57.27-34.18h-1.01c-1.01,0-1.61.57-1.77,1.7l1.01,1.94c-.68,0-1.01.33-1.01.97Z"/>
    <path class="cls-3" d="m1021.83,823.34c0-2.12-.39-4.8-1.15-7.98-.63-2.64-1.5-5.62-2.65-8.99-4.79-10.53-10.79-17.86-17.99-22.04-4.72-2.74-9.96-4.14-15.72-4.14-7.94,0-16.14,3.31-24.58,9.94-16.9,16.16-25.34,38.3-25.34,66.42,0,5.01.34,9.86,1.01,14.54,6.08,28.77,17.06,43.15,32.94,43.15,10.81,0,22.72-8.4,35.73-25.21,11.82-20.68,17.74-37.49,17.74-50.42v-15.27Z"/>
    <path class="cls-3" d="m1445.05,1256.01c-9.97.65-14.95,2.83-14.95,6.54-2.03,8.73-8.87,18.51-20.53,29.33-.34.32-.68.64-1.01.97l-1.27.24-7.86,3.88c-17.57,7.11-35.99,6.7-55.25-1.21,41.22-19.88,60.73-41.69,58.54-65.45-6.59-20.52-25.18-28.92-55.75-25.21-28.72,8.57-46.72,23.6-53.98,45.09-6.75,19.39-5.58,36.2,3.55,50.42.7,1.25,1.5,2.48,2.38,3.71-3.54.37-7.62,1.47-12.26,3.32l-2.5-9.76c.45-4.2.36-8.44.6-12.65l.13-.86v-.89c.17-2.07.46-4.13.96-6.17.21-.85.21-1.63.05-2.33.37-1.97.7-3.95.88-5.96,2.97-14.77,4.45-26.87,4.45-36.29-9.29-7.92-17.4-11.83-24.33-11.76-6.93.08-13.09-1.17-18.5-3.76-3.49-1.67-8.67-2.79-15.53-3.39-.66-.46-1.46-.79-2.4-.92-3.03-.4-5.86-.27-8.34.44-.7,0-1.4-.01-2.11-.01l-1.15,1.42c-2.07,1.27-3.67,3.17-4.67,5.77l-.27.33-.12.84c-.24.84-.44,1.72-.56,2.68-.15,1.19-.26,2.38-.35,3.57l-.49,3.33-.62,6.41c-.11.58-.24,1.15-.38,1.73-1.25,4.96-3.14,8.89-2.55,14l-1.26,8.65-2.27,10.62c-.24.7-.48,1.42-.73,2.13l-1.06,2.03-1.31,4.38c-1.33,3.3-2.88,6.53-4.75,9.48-.31.26-.6.56-.87.92-6.34,8.43-19.31,6.96-28.13,4.18-10.33-3.25-11.3-15.73-11.28-25.06,0-2.1-1.06-3.52-2.5-4.25-3.29-22.9-13.27-39.34-29.98-49.28-16.39-5.17-32.18-5.66-47.39-1.46-2.7,1.78-5.2,3.15-7.48,4.12-2.28.97-4.27,1.78-5.96,2.42-14.81,15.09-23.56,30.47-26.28,46.13-2.08,11.97-.62,24.1,4.37,36.4,1.06,2.62,2.28,5.25,3.66,7.89,1.26,1.39,2.52,2.7,3.79,3.98,7.78,7.81,15.72,13.45,23.85,16.89,20.43,8.64,41.96,3.47,64.6-15.53,4.55,2.79,8.94,5.09,13.16,6.93,3.01,1.31,5.93,2.38,8.77,3.22.55.34,1.1.67,1.65,1.01-.01.24-.02.49-.02.72,4.85,3.57,9.53,6.05,14.06,7.44,27.01,8.3,48.25-22.21,63.74-91.55,8.62,2.91,16.73,4.93,24.33,6.06-9.97,34.58-6.17,62.13,11.4,82.66,14.73,8.39,28.16,6.15,40.29-6.7,2.02-1.24,3.74-2.9,4.83-5.05,1.38.85,2.8,1.7,4.29,2.54,6.59,2.58,13.26,4.61,20.02,6.06,5.07,1.78,10.14,2.67,15.21,2.67,10.98,0,22.3-1.29,33.96-3.88,11.66-2.59,21.45-7.19,29.4-13.82,7.94-6.63,15.25-14.26,21.92-22.91,6.67-8.64,10.01-14.26,10.01-16.85v-5.09c-1.69-10.34-4.99-15.51-9.88-15.51Zm-340.09,50.9c-19.94,4.36-32.44-3.39-37.51-23.27-.34-18.91,7.26-32.88,22.81-41.93,12.67,0,22.72,5.25,30.16,15.76,6.92,20.52,1.77,37-15.46,49.45Zm234.92-72.48l8.36-4.36c7.14-.73,12.48.59,16.05,3.95.23.52.54,1.03.93,1.48,1.95,2.25,2.75,5.02,2.73,7.94-4.87,18.47-17.85,28.82-38.97,30.99-10.48-8.73-6.84-22.06,10.9-40Z"/>
    <path class="cls-3" d="m1165.01,1326.41c-2.18-1.53-4.4-3-6.66-4.4-1.11-.69-2.8-.27-3.42.9-.65,1.23-.29,2.68.9,3.42,2.26,1.4,4.48,2.87,6.66,4.4.51.35,1.35.41,1.93.25s1.21-.61,1.49-1.15c.31-.58.46-1.28.25-1.93s-.59-1.1-1.15-1.49h0Z"/>
    <path class="cls-3" d="m1156.86,1338.89c3.67,3.93,8.24,7.21,13.46,8.69,1.26.36,2.78-.44,3.08-1.75s-.4-2.69-1.75-3.08c-.51-.15-1.02-.31-1.52-.49-.24-.09-.59-.17-.8-.31.15.1.34.15.06.02-.15-.07-.3-.13-.45-.2-1.07-.5-2.09-1.08-3.08-1.72-.5-.32-.99-.67-1.46-1.02-.04-.03-.4-.3-.17-.13.25.19-.26-.21-.25-.2-.23-.18-.45-.37-.67-.55-1.02-.87-1.99-1.81-2.9-2.79s-2.64-.97-3.54,0c-.94,1.03-.95,2.51,0,3.54h0Z"/>
    <path class="cls-3" d="m1156.68,1339.47c3.52,4.1,8.82,5.92,13.81,7.53,1.25.4,2.78-.47,3.08-1.75.31-1.37-.41-2.65-1.75-3.08-1.12-.36-2.25-.73-3.36-1.13-.57-.21-1.14-.42-1.71-.66-.05-.02-.46-.2-.17-.07.32.14-.2-.09-.26-.12-.28-.12-.55-.25-.82-.38-1.05-.51-2.06-1.08-3.01-1.75-.11-.08-.21-.15-.32-.23-.38-.28.18.17-.04-.03-.2-.17-.41-.34-.6-.51-.47-.42-.91-.88-1.32-1.35-.86-1-2.67-.94-3.54,0-.97,1.06-.91,2.47,0,3.54h0Z"/>
  </g>
</svg>